<svg width="89" height="81" viewBox="0 0 89 81" fill="none" xmlns="http://www.w3.org/2000/svg">
<path d="M52.5318 65.9476C48.1244 63.8174 44.3393 60.5889 41.5405 56.5727H8.08182V8.08182H80.8182V17.2143C84.0881 19.5155 86.8409 22.4747 88.9 25.9022V8.08182C88.9 5.93839 88.0485 3.88274 86.5329 2.36711C85.0173 0.851475 82.9616 0 80.8182 0H8.08182C5.93839 0 3.88274 0.851475 2.36711 2.36711C0.851475 3.88274 0 5.93839 0 8.08182V56.5727C0 58.7162 0.851475 60.7718 2.36711 62.2874C3.88274 63.8031 5.93839 64.6546 8.08182 64.6546H36.3682V72.7364H28.2864V80.8182H60.6136V72.7364H52.5318V65.9476Z" fill="#16B3AC"/>
<path d="M64.6545 16.1636C59.8592 16.1636 55.1716 17.5855 51.1845 20.2497C47.1973 22.9138 44.0897 26.7004 42.2546 31.1307C40.4196 35.561 39.9394 40.4359 40.8749 45.1391C41.8105 49.8422 44.1196 54.1624 47.5104 57.5532C50.9012 60.9439 55.2213 63.2531 59.9245 64.1886C64.6276 65.1241 69.5026 64.644 73.9329 62.8089C78.3631 60.9738 82.1498 57.8662 84.8139 53.8791C87.478 49.8919 88.9 45.2043 88.9 40.409C88.9 33.9787 86.3456 27.8118 81.7986 23.2649C77.2517 18.718 71.0848 16.1636 64.6545 16.1636ZM64.6545 46.4704C63.4557 46.4704 62.2838 46.1149 61.287 45.4489C60.2902 44.7828 59.5133 43.8362 59.0546 42.7286C58.5958 41.621 58.4757 40.4023 58.7096 39.2265C58.9435 38.0507 59.5208 36.9707 60.3685 36.123C61.2162 35.2753 62.2962 34.698 63.472 34.4641C64.6478 34.2303 65.8665 34.3503 66.9741 34.8091C68.0817 35.2678 69.0283 36.0447 69.6944 37.0415C70.3604 38.0383 70.7159 39.2102 70.7159 40.409C70.7159 42.0166 70.0773 43.5583 68.9406 44.6951C67.8038 45.8318 66.2621 46.4704 64.6545 46.4704Z" fill="#16B3AC"/>
</svg>
